<svg width="146" height="66" viewBox="0 0 146 66" fill="none" xmlns="http://www.w3.org/2000/svg">
<rect x="28.8264" y="8.13623" width="87.8167" height="23.3329" fill="black"/>
<path d="M0.428286 19.642L29.0419 3.0705L29.0864 36.1364L0.428286 19.642Z" fill="black"/>
<path d="M50.355 16.064C50.355 17.2044 50.0473 18.2361 49.4319 19.1592C48.8164 20.0824 47.9204 20.7612 46.7439 21.1956L50.898 29.0151H44.1645L40.8521 22.2002H38.6257V29.0151H32.6253V10.3351H44.0559C45.3954 10.3351 46.5357 10.5976 47.477 11.1225C48.4363 11.6293 49.1513 12.3262 49.6219 13.2132C50.1106 14.082 50.355 15.0323 50.355 16.064ZM44.246 16.3084C44.246 15.8197 44.0831 15.4124 43.7573 15.0866C43.4315 14.7608 43.0332 14.5979 42.5626 14.5979H38.6257V18.046H42.5626C43.0332 18.046 43.4315 17.8831 43.7573 17.5573C44.0831 17.2134 44.246 16.7971 44.246 16.3084ZM71.9053 21.4942C71.9053 24.0464 71.0998 25.9923 69.4889 27.3317C67.8779 28.6712 65.5881 29.3409 62.6196 29.3409C59.6511 29.3409 57.3523 28.6712 55.7233 27.3317C54.1123 25.9923 53.3068 24.0464 53.3068 21.4942V10.3351H59.3072V21.4128C59.3072 22.4626 59.5878 23.3043 60.1489 23.9378C60.71 24.5533 61.5245 24.861 62.5925 24.861C63.6604 24.861 64.475 24.5442 65.0361 23.9107C65.6153 23.2772 65.9049 22.4445 65.9049 21.4128V10.3351H71.9053V21.4942ZM83.7705 10.0093C86.1598 10.0093 88.1237 10.498 89.6623 11.4755C91.2009 12.4348 91.9882 13.8648 92.0245 15.7654V16.0912H86.4042V15.9826C86.4042 15.4395 86.2051 14.987 85.8069 14.625C85.4086 14.263 84.8023 14.082 83.9877 14.082C83.1913 14.082 82.5759 14.1996 82.1415 14.435C81.7251 14.6703 81.517 14.9599 81.517 15.3038C81.517 15.7925 81.8066 16.1545 82.3858 16.3898C82.965 16.6251 83.8972 16.8695 85.1824 17.1229C86.6847 17.4306 87.9156 17.7564 88.8749 18.1003C89.8524 18.4262 90.7031 18.9692 91.4271 19.7294C92.1512 20.4896 92.5222 21.5214 92.5403 22.8246C92.5403 25.0329 91.7891 26.671 90.2868 27.739C88.8025 28.8069 86.8114 29.3409 84.3135 29.3409C81.3993 29.3409 79.1277 28.8522 77.4986 27.8747C75.8877 26.8973 75.0822 25.1687 75.0822 22.6889H80.7568C80.7568 23.6301 81.0011 24.2636 81.4898 24.5895C81.9786 24.8972 82.7388 25.051 83.7705 25.051C84.5308 25.051 85.1552 24.9696 85.6439 24.8067C86.1508 24.6438 86.4042 24.3089 86.4042 23.8021C86.4042 23.3496 86.1236 23.0147 85.5625 22.7975C85.0195 22.5622 84.1235 22.3178 82.8745 22.0644C81.3541 21.7386 80.0961 21.4037 79.1005 21.0598C78.105 20.6978 77.2362 20.1095 76.494 19.295C75.7519 18.4805 75.3808 17.3763 75.3808 15.9826C75.3808 13.9372 76.1682 12.4348 77.743 11.4755C79.3359 10.498 81.345 10.0093 83.7705 10.0093ZM108.116 29.0151V21.9286H101.519V29.0151H95.5182V10.3351H101.519V17.1501H108.116V10.3351H114.117V29.0151H108.116Z" fill="white"/>
<rect x="29.5508" y="31.9485" width="87.8167" height="23.3329" fill="black"/>
<path d="M145.843 43.4027L117.253 60.0138L117.162 26.9481L145.843 43.4027Z" fill="black"/>
<path d="M45.0256 53.2515V46.1651H38.4279V53.2515H32.4275V34.5716H38.4279V41.3865H45.0256V34.5716H51.026V53.2515H45.0256ZM63.7872 34.2458C67.0091 34.2458 69.498 35.0694 71.2538 36.7165C73.0095 38.3637 73.8874 40.762 73.8874 43.9116C73.8874 47.0611 73.0095 49.4594 71.2538 51.1066C69.498 52.7538 67.0091 53.5773 63.7872 53.5773C60.5653 53.5773 58.0764 52.7628 56.3207 51.1337C54.583 49.4866 53.7142 47.0792 53.7142 43.9116C53.7142 40.7439 54.583 38.3456 56.3207 36.7165C58.0764 35.0694 60.5653 34.2458 63.7872 34.2458ZM63.7872 38.7257C62.5021 38.7257 61.5246 39.1149 60.8549 39.8932C60.1852 40.6715 59.8503 41.7214 59.8503 43.0427V44.7804C59.8503 46.1017 60.1852 47.1516 60.8549 47.9299C61.5246 48.7082 62.5021 49.0974 63.7872 49.0974C65.0724 49.0974 66.0498 48.7082 66.7195 47.9299C67.4074 47.1516 67.7513 46.1017 67.7513 44.7804V43.0427C67.7513 41.7214 67.4074 40.6715 66.7195 39.8932C66.0498 39.1149 65.0724 38.7257 63.7872 38.7257ZM95.1741 45.7307C95.1741 48.2829 94.3686 50.2287 92.7576 51.5682C91.1467 52.9076 88.8569 53.5773 85.8884 53.5773C82.9199 53.5773 80.6211 52.9076 78.992 51.5682C77.3811 50.2287 76.5756 48.2829 76.5756 45.7307V34.5716H82.576V45.6492C82.576 46.6991 82.8565 47.5408 83.4176 48.1743C83.9788 48.7897 84.7933 49.0974 85.8612 49.0974C86.9292 49.0974 87.7437 48.7807 88.3048 48.1471C88.8841 47.5136 89.1737 46.681 89.1737 45.6492V34.5716H95.1741V45.7307ZM116.379 40.3005C116.379 41.4408 116.072 42.4726 115.456 43.3957C114.841 44.3188 113.945 44.9976 112.768 45.432L116.922 53.2515H110.189L106.876 46.4366H104.65V53.2515H98.6496V34.5716H110.08C111.42 34.5716 112.56 34.8341 113.501 35.359C114.461 35.8658 115.176 36.5627 115.646 37.4496C116.135 38.3184 116.379 39.2687 116.379 40.3005ZM110.27 40.5448C110.27 40.0561 110.107 39.6488 109.782 39.323C109.456 38.9972 109.058 38.8343 108.587 38.8343H104.65V42.2825H108.587C109.058 42.2825 109.456 42.1196 109.782 41.7938C110.107 41.4499 110.27 41.0335 110.27 40.5448Z" fill="white"/>
<path d="M32.0756 63.0775V57.257H33.8829C34.573 57.257 35.1132 57.4946 35.5035 57.9697C35.8937 58.4392 36.0889 59.1434 36.0889 60.0824C36.0889 61.078 35.8937 61.8274 35.5035 62.3309C35.1132 62.8286 34.573 63.0775 33.8829 63.0775H32.0756ZM32.8223 62.3987H33.815C34.2732 62.3987 34.6352 62.2262 34.901 61.8812C35.1725 61.5305 35.3083 61.0016 35.3083 60.2945V59.8703C35.3083 59.2198 35.1725 58.7362 34.901 58.4194C34.6352 58.097 34.2732 57.9358 33.815 57.9358H32.8223V62.3987ZM44.1392 63.0775V57.257H47.7282V57.9358H44.8858V59.76H47.3549V60.4388H44.8858V62.3987H47.7791V63.0775H44.1392ZM55.8215 63.0775V57.257H56.5682V62.3987H58.9439V63.0775H55.8215ZM66.7333 63.0775V57.257H67.48V63.0775H66.7333ZM76.9535 63.0775L75.1802 57.257H76.0032L77.4456 62.2545H77.4796L78.9644 57.257H79.6856L77.9123 63.0775H76.9535ZM87.3886 63.0775V57.257H90.9777V57.9358H88.1353V59.76H90.6043V60.4388H88.1353V62.3987H91.0286V63.0775H87.3886ZM99.071 63.0775V57.257H101.413C101.984 57.257 102.417 57.4069 102.711 57.7067C103.005 58.0008 103.152 58.3883 103.152 58.8691C103.152 59.2311 103.062 59.545 102.881 59.8109C102.7 60.0711 102.445 60.2578 102.117 60.3709L103.288 63.0775H102.456L101.379 60.5066H99.8177V63.0775H99.071ZM99.8177 59.8279H101.387C101.687 59.8279 101.925 59.7402 102.1 59.5648C102.281 59.3895 102.372 59.1576 102.372 58.8691C102.372 58.5806 102.287 58.3544 102.117 58.1903C101.947 58.0206 101.704 57.9358 101.387 57.9358H99.8177V59.8279ZM112.376 63.0775V60.6679L110.492 57.257H111.316L112.792 59.9551H112.826L114.277 57.257H114.998L113.123 60.6679V63.0775H112.376Z" fill="black"/>
</svg>
